<svg width="166" height="32" viewBox="0 0 166 32" fill="none" xmlns="http://www.w3.org/2000/svg">
<g clip-path="url(#clip0_117_116)">
<path d="M136.733 22.5306L136.753 22.4884C137.107 21.7115 137.993 21.3394 138.773 21.6529C139.874 22.0958 141.167 22.367 142.37 22.367C144.266 22.367 144.978 21.8559 144.978 21.0491C144.978 18.683 136.416 21.1022 136.416 15.322C136.416 12.5798 138.839 10.6431 142.975 10.6431C144.226 10.6431 145.565 10.8312 146.719 11.1801C147.662 11.4649 148.143 12.5307 147.725 13.4384C147.376 14.199 146.52 14.5588 145.744 14.2821C144.795 13.9427 143.86 13.816 142.975 13.816C141.131 13.816 140.34 14.4075 140.34 15.1598C140.34 17.6336 148.903 15.2403 148.903 20.9414C148.903 23.6305 146.452 25.54 142.211 25.54C140.577 25.54 138.931 25.2279 137.631 24.7481C136.752 24.4237 136.338 23.3961 136.732 22.5306H136.733Z" fill="white"/>
<path d="M163.826 20.7545L164.238 21.0871C164.921 21.6364 164.961 22.6804 164.321 23.2814C163.238 24.2968 161.758 24.9728 159.908 25.2727C155.028 26.0632 151.365 23.445 150.699 19.1613C150.029 14.8503 152.746 11.2249 157.101 10.5189C160.677 9.93963 164.018 11.6051 165.205 15.2728C165.443 16.0061 165.05 16.7979 164.34 17.061L155.875 20.2012C155.633 20.2911 155.548 20.6019 155.717 20.8009C156.567 21.8026 157.869 22.172 159.492 21.9089C160.554 21.7372 161.368 21.3692 162.047 20.7791C162.554 20.3375 163.302 20.3334 163.826 20.7559V20.7545ZM155.107 17.9101L160.905 15.7512C161.125 15.6694 161.222 15.4009 161.099 15.1978C160.404 14.0448 159.128 13.4288 157.593 13.6782C155.695 13.9862 154.525 15.4036 154.605 17.5625C154.614 17.8215 154.868 17.9987 155.107 17.9101Z" fill="white"/>
<path d="M44.836 18.3667C44.9428 22.2252 48.1076 25.3654 51.8933 25.3654C52.0989 25.364 52.2939 25.3559 52.4742 25.3409C53.1699 25.2823 53.8536 25.101 54.4946 24.8093C55.3759 24.4086 55.5936 23.2297 54.9165 22.5264H54.9152C54.5173 22.1107 53.9057 21.9812 53.3875 22.2198C53.0283 22.386 52.6451 22.4883 52.2485 22.521C52.119 22.5332 52.0121 22.5387 51.8866 22.536C49.6325 22.536 47.6722 20.591 47.6095 18.2877C47.5761 17.0937 48.0061 15.9652 48.8206 15.1093C49.6339 14.2547 50.7249 13.7845 51.8946 13.7845C52.3353 13.7845 52.7706 13.8527 53.1846 13.9863C53.7494 14.1675 54.365 13.9413 54.7069 13.4479C55.2517 12.6628 54.8858 11.5629 53.9858 11.2767C53.3141 11.0641 52.6104 10.9551 51.8946 10.9551C49.9717 10.9551 48.173 11.7306 46.8336 13.1371C45.493 14.5451 44.7852 16.4014 44.8386 18.3667H44.836Z" fill="white"/>
<path d="M63.9048 10.9673C59.657 10.6892 56.1397 14.2792 56.4094 18.6188C56.6325 22.2047 59.4701 25.1009 62.9834 25.3286C67.2351 25.6052 70.7551 22.0139 70.4814 17.677C70.2557 14.0925 67.4181 11.1963 63.9061 10.9659L63.9048 10.9673ZM63.1637 22.5059C61.0364 22.3683 59.3098 20.606 59.175 18.4335C59.008 15.7376 61.2488 13.5173 63.9074 13.8063C65.8918 14.0216 67.4862 15.649 67.6972 17.6743C67.9816 20.3893 65.805 22.6776 63.1623 22.5059H63.1637Z" fill="white"/>
<path d="M85.813 17.9466C85.7075 14.0895 82.5414 10.9507 78.7544 10.9507C78.5394 10.9507 78.3457 10.9589 78.1788 10.9725C74.9606 11.241 72.366 14.1127 72.2726 17.5105V17.5241C72.2712 17.5746 72.2672 17.689 72.2672 17.7149L72.2699 29.2481C72.2699 30.0291 72.8908 30.6628 73.656 30.6628C74.4211 30.6628 75.0421 30.0291 75.0421 29.2481V24.2979L75.5735 24.5746C76.5604 25.0884 77.6607 25.361 78.7544 25.361C80.6799 25.361 82.4786 24.5841 83.822 23.1749C85.1627 21.767 85.8691 19.9106 85.8144 17.9466H85.813ZM81.8283 21.2041C81.0151 22.06 79.9241 22.5316 78.7544 22.5316C77.5846 22.5316 76.4575 22.0436 75.6403 21.1577C75.2677 20.7502 75.0501 20.1628 75.0421 19.5454V17.685C75.0581 15.6596 76.535 13.9505 78.4032 13.7938H78.4352C78.5367 13.7856 78.6368 13.7801 78.753 13.7801C81.0138 13.7801 82.9767 15.7251 83.0408 18.0271C83.0729 19.2264 82.6416 20.3549 81.8283 21.2054V21.2041Z" fill="white"/>
<path d="M98.1058 11.0693H98.1045C97.3393 11.0693 96.7184 11.7031 96.7184 12.4841V19.1352C96.7184 20.9602 95.2669 22.4444 93.4815 22.4444C91.6961 22.4444 90.2446 20.9602 90.2446 19.1352V12.4868C90.2446 11.7058 89.6237 11.0721 88.8585 11.0721C88.0934 11.0721 87.4724 11.7058 87.4724 12.4868V19.1352C87.4724 22.5207 90.1672 25.2739 93.4815 25.2739C93.4895 25.2739 93.4975 25.2739 93.5055 25.2739C94.7447 25.2684 95.9172 24.7001 96.7464 23.7596C96.8065 23.6915 96.916 23.7569 96.8866 23.8441L96.4179 25.203C95.6768 27.3537 93.6831 28.7998 91.4558 28.7998C91.2221 28.7998 90.9897 28.7848 90.76 28.7534C90.1364 28.6689 89.5315 29.0083 89.2858 29.5998C88.9293 30.4571 89.4674 31.4303 90.3715 31.5556C90.8562 31.6224 91.3489 31.6442 91.847 31.6197C96.1482 31.4125 99.4906 27.704 99.4906 23.3099V12.4841C99.4906 11.7031 98.8696 11.0693 98.1045 11.0693H98.1058Z" fill="white"/>
<path d="M118.648 18.3775C118.537 22.4404 115.211 25.7346 111.223 25.7346C111.026 25.7346 110.815 25.7292 110.616 25.7115C107.184 25.4253 104.476 22.4173 104.376 18.8123C104.376 18.8123 104.37 18.631 104.37 18.5983L104.373 7.06513C104.373 6.07836 105.157 5.27832 106.124 5.27832C107.09 5.27832 107.874 6.07836 107.874 7.06513V11.4061C108.9 10.8705 110.049 10.5788 111.222 10.5788C113.248 10.5788 115.139 11.3952 116.551 12.8781C117.957 14.3555 118.705 16.3099 118.646 18.3761L118.648 18.3775ZM115.147 18.2767C115.176 17.1809 114.785 16.1505 114.037 15.3695C113.296 14.5885 112.297 14.1538 111.223 14.1538C110.15 14.1538 109.123 14.6008 108.375 15.4104C108.066 15.7484 107.882 16.2431 107.876 16.772V18.6269C107.89 20.4601 109.212 22.0043 110.901 22.1474C111.007 22.1528 111.106 22.1597 111.222 22.1597C113.294 22.1597 115.086 20.3838 115.144 18.2753L115.147 18.2767Z" fill="white"/>
<path d="M134.682 16.8855V24.8342C134.682 25.2185 134.377 25.5293 134.001 25.5293H131.86C131.483 25.5293 131.179 25.2185 131.179 24.8342C131.179 24.8342 131.178 24.8342 131.176 24.8355C130.354 25.318 129.426 25.6274 128.439 25.7119C128.241 25.7296 128.03 25.7351 127.833 25.7351C123.847 25.7351 120.519 22.4408 120.408 18.3779C120.349 16.3104 121.097 14.3573 122.503 12.8798C123.916 11.397 125.807 10.5806 127.826 10.5806C129.845 10.5806 131.829 11.4501 133.225 12.9575C134.165 13.977 134.678 15.3399 134.678 16.8065V16.8869H134.68L134.682 16.8855ZM131.178 16.8051C131.178 16.2627 130.997 15.757 130.681 15.4108C129.928 14.5999 128.918 14.1542 127.827 14.1542C126.736 14.1542 125.761 14.589 125.02 15.3699C124.274 16.1509 123.883 17.1813 123.911 18.2771C123.969 20.3855 125.761 22.1614 127.833 22.1614C127.943 22.1669 128.049 22.1614 128.153 22.1492C129.852 22.0061 131.176 20.4455 131.176 18.5987V16.8051H131.178Z" fill="white"/>
<path d="M11.8274 26.3124H11.5269C7.91881 26.3124 4.79409 23.5579 4.47628 19.8902C4.1144 15.6992 7.33927 12.1828 11.3707 12.1828H17.5534C18.4627 12.1828 19.268 11.5817 19.543 10.6972C19.9704 9.32336 18.9662 7.9209 17.5534 7.9209H11.3707C5.24277 7.9209 0.273926 12.9924 0.273926 19.2469C0.273926 25.5028 5.24277 30.5729 11.3707 30.5729H11.8274C12.7368 30.5729 13.542 29.9719 13.8171 29.0873C14.2444 27.7135 13.2402 26.311 11.8274 26.311V26.3124Z" fill="white"/>
<path d="M27.8061 7.92101H26.8607L28.2682 3.30883C28.6741 1.9786 27.7007 0.62793 26.3346 0.62793H26.3266C25.4399 0.62793 24.6574 1.21672 24.393 2.07946L22.1269 9.50746C21.7343 10.7968 22.637 12.0998 23.935 12.1802L23.9683 12.1815C23.9991 12.1829 24.0298 12.187 24.0605 12.187H24.0685C24.0925 12.187 24.1139 12.1815 24.1379 12.1815H27.6499C31.258 12.1815 34.3827 14.936 34.7006 18.6051C35.0624 22.7961 31.8376 26.3125 27.8061 26.3125H18.241C17.3316 26.3125 16.5264 26.9135 16.2514 27.7981C15.824 29.1719 16.8282 30.5744 18.241 30.5744H27.8061C33.9354 30.5744 38.9029 25.5029 38.9029 19.2484C38.9029 12.9925 33.9341 7.92237 27.8061 7.92237V7.92101Z" fill="white"/>
<path d="M13.6742 22.3656C15.2119 22.3656 16.4584 21.0933 16.4584 19.5239C16.4584 17.9544 15.2119 16.6821 13.6742 16.6821C12.1365 16.6821 10.89 17.9544 10.89 19.5239C10.89 21.0933 12.1365 22.3656 13.6742 22.3656Z" fill="#AFB1B3"/>
<path d="M25.5027 22.3656C27.0404 22.3656 28.2869 21.0933 28.2869 19.5239C28.2869 17.9544 27.0404 16.6821 25.5027 16.6821C23.965 16.6821 22.7185 17.9544 22.7185 19.5239C22.7185 21.0933 23.965 22.3656 25.5027 22.3656Z" fill="#AFB1B3"/>
</g>
<defs>
<clipPath id="clip0_117_116">
<rect width="165" height="31" fill="white" transform="translate(0.273926 0.62793)"/>
</clipPath>
</defs>
</svg>
